<?xml version="1.0" encoding="utf-8"?>
<!-- Generator: Adobe Illustrator 16.0.0, SVG Export Plug-In . SVG Version: 6.00 Build 0)  -->
<!DOCTYPE svg PUBLIC "-//W3C//DTD SVG 1.1//EN" "http://www.w3.org/Graphics/SVG/1.1/DTD/svg11.dtd">
<svg version="1.1" id="Layer_1" xmlns="http://www.w3.org/2000/svg" xmlns:xlink="http://www.w3.org/1999/xlink" x="0px" y="0px"
	 width="122.277px" height="111.992px" viewBox="15.511 158.687 122.277 111.992"
	 enable-background="new 15.511 158.687 122.277 111.992" xml:space="preserve">
<g>
	<g>
		
			<linearGradient id="SVGID_1_" gradientUnits="userSpaceOnUse" x1="35.2288" y1="1375.5576" x2="147.22" y2="1375.5576" gradientTransform="matrix(1 0 0 1 -16.7197 -1160.875)">
			<stop  offset="0" style="stop-color:#2077C0"/>
			<stop  offset="1" style="stop-color:#33FFCC"/>
		</linearGradient>
		<path fill="url(#SVGID_1_)" d="M90.144,177.326c-0.984,0.373-1.64,1.313-1.64,2.358c0,1.053,0.655,1.996,1.64,2.364l12.358,4.636
			l4.635,12.358c0.374,0.982,1.312,1.64,2.365,1.64c1.053,0,1.991-0.656,2.364-1.64l4.634-12.358l12.358-4.636
			c0.984-0.368,1.641-1.313,1.641-2.364c0-1.047-0.655-1.985-1.641-2.358l-12.356-4.64l-4.636-12.358
			c-0.373-0.985-1.312-1.642-2.364-1.642c-1.054,0-1.991,0.656-2.365,1.642l-4.634,12.358L90.144,177.326z M63.371,174.722
			c-0.568-1.242-1.815-2.035-3.171-2.035c-1.357,0-2.604,0.793-3.172,2.035L45.48,199.66l-24.936,11.522
			c-1.247,0.573-2.035,1.817-2.035,3.198c0,1.378,0.788,2.599,2.035,3.173l24.955,11.523l11.507,24.936
			c0.568,1.244,1.815,2.037,3.171,2.037c1.354,0,2.602-0.793,3.172-2.037l11.525-24.957l24.963-11.529
			c1.243-0.566,2.031-1.814,2.031-3.172c0-1.354-0.788-2.599-2.031-3.172l-24.938-11.502L63.371,174.722z M102.503,242.681
			l-12.358,4.639c-0.984,0.373-1.64,1.313-1.64,2.361c0,1.053,0.655,1.994,1.64,2.363l12.358,4.635l4.635,12.359
			c0.374,0.983,1.312,1.641,2.365,1.641c1.053,0,1.991-0.656,2.364-1.641l4.635-12.359l12.357-4.635
			c0.984-0.369,1.641-1.312,1.641-2.363c0-1.049-0.655-1.988-1.641-2.361l-12.357-4.639l-4.635-12.359
			c-0.374-0.984-1.313-1.641-2.364-1.641c-1.053,0-1.991,0.656-2.365,1.641L102.503,242.681z"/>
		<g>
			
				<linearGradient id="SVGID_2_" gradientUnits="userSpaceOnUse" x1="23.8708" y1="-95.9619" x2="146.1482" y2="-95.9619" gradientTransform="matrix(1 0 0 -1 -8.3599 136.0469)">
				<stop  offset="0" style="stop-color:#2077C0"/>
				<stop  offset="1" style="stop-color:#33FFCC"/>
			</linearGradient>
			<path fill="none" stroke="url(#SVGID_2_)" stroke-miterlimit="10" d="M80.226,242.306
				c-33.429,11.611-62.131,16.416-64.107,10.729c-1.975-5.691,23.523-19.713,56.953-31.324
				c33.433-11.611,62.136-16.415,64.109-10.724C139.155,216.675,113.654,230.696,80.226,242.306z"/>
			<g>
				
					<linearGradient id="SVGID_3_" gradientUnits="userSpaceOnUse" x1="23.8708" y1="-95.9619" x2="146.1482" y2="-95.9619" gradientTransform="matrix(1 0 0 -1 -8.3599 136.0469)">
					<stop  offset="0" style="stop-color:#2077C0"/>
					<stop  offset="1" style="stop-color:#33FFCC"/>
				</linearGradient>
				<path fill="none" stroke="url(#SVGID_3_)" stroke-miterlimit="10" d="M80.226,242.306
					c-33.429,11.611-62.131,16.416-64.107,10.729c-1.975-5.691,23.523-19.713,56.953-31.324
					c33.433-11.611,62.136-16.415,64.109-10.724C139.155,216.675,113.654,230.696,80.226,242.306z"/>
			</g>
		</g>
		<g>
			
				<linearGradient id="SVGID_4_" gradientUnits="userSpaceOnUse" x1="53.8938" y1="1335.6064" x2="57.6838" y2="1335.6064" gradientTransform="matrix(1 0 0 1 -16.7197 -1160.875)">
				<stop  offset="0" style="stop-color:#2077C0"/>
				<stop  offset="1" style="stop-color:#33FFCC"/>
			</linearGradient>
			<path fill="url(#SVGID_4_)" d="M39.068,172.836c1.048,0,1.896,0.853,1.896,1.896s-0.849,1.896-1.896,1.896
				c-1.046,0-1.894-0.854-1.894-1.896S38.022,172.836,39.068,172.836z"/>
		</g>
		<g>
			
				<linearGradient id="SVGID_5_" gradientUnits="userSpaceOnUse" x1="34.3782" y1="1391.1055" x2="38.1682" y2="1391.1055" gradientTransform="matrix(1 0 0 1 -16.7197 -1160.875)">
				<stop  offset="0" style="stop-color:#2077C0"/>
				<stop  offset="1" style="stop-color:#33FFCC"/>
			</linearGradient>
			<path fill="url(#SVGID_5_)" d="M19.553,228.335c1.048,0,1.896,0.848,1.896,1.896c0,1.043-0.848,1.896-1.896,1.896
				c-1.046,0-1.895-0.853-1.895-1.896C17.658,229.183,18.507,228.335,19.553,228.335z"/>
		</g>
		<g>
			
				<linearGradient id="SVGID_6_" gradientUnits="userSpaceOnUse" x1="111.9084" y1="1321.457" x2="115.6985" y2="1321.457" gradientTransform="matrix(1 0 0 1 -16.7197 -1160.875)">
				<stop  offset="0" style="stop-color:#2077C0"/>
				<stop  offset="1" style="stop-color:#33FFCC"/>
			</linearGradient>
			<path fill="url(#SVGID_6_)" d="M97.082,158.687c1.049,0,1.896,0.849,1.896,1.896c0,1.043-0.848,1.896-1.896,1.896
				c-1.046,0-1.894-0.853-1.894-1.896C95.189,159.535,96.036,158.687,97.082,158.687z"/>
		</g>
		<g>
			
				<linearGradient id="SVGID_7_" gradientUnits="userSpaceOnUse" x1="146.5618" y1="1406.3379" x2="150.3499" y2="1406.3379" gradientTransform="matrix(1 0 0 1 -16.7197 -1160.875)">
				<stop  offset="0" style="stop-color:#2077C0"/>
				<stop  offset="1" style="stop-color:#33FFCC"/>
			</linearGradient>
			<circle fill="url(#SVGID_7_)" cx="131.736" cy="245.462" r="1.894"/>
		</g>
		<g>
			
				<linearGradient id="SVGID_8_" gradientUnits="userSpaceOnUse" x1="58.9934" y1="1375.4219" x2="60.4534" y2="1375.4219" gradientTransform="matrix(1 0 0 1 -16.7197 -1160.875)">
				<stop  offset="0" style="stop-color:#2077C0"/>
				<stop  offset="1" style="stop-color:#33FFCC"/>
			</linearGradient>
			<path fill="url(#SVGID_8_)" d="M43.003,213.817c0.402,0,0.73,0.322,0.73,0.729c0,0.399-0.328,0.729-0.73,0.729
				c-0.403,0-0.729-0.328-0.729-0.729C42.274,214.14,42.6,213.817,43.003,213.817z"/>
		</g>
		<g>
			
				<linearGradient id="SVGID_9_" gradientUnits="userSpaceOnUse" x1="37.8396" y1="1349.0566" x2="49.4128" y2="1349.0566" gradientTransform="matrix(1 0 0 1 -16.7197 -1160.875)">
				<stop  offset="0" style="stop-color:#2077C0"/>
				<stop  offset="1" style="stop-color:#33FFCC"/>
			</linearGradient>
			<path fill="url(#SVGID_9_)" d="M27.776,193.957c-0.375,0.062-0.727-0.172-0.838-0.555c-1.043-3.414-1.595-3.828-5.013-3.705
				c-0.395,0.014-0.74-0.27-0.797-0.643c-0.058-0.383,0.188-0.738,0.566-0.857c3.269-0.965,3.621-1.438,3.7-5.016
				c0.012-0.396,0.267-0.721,0.638-0.775c0.383-0.059,0.729,0.174,0.851,0.557c1.034,3.412,1.583,3.822,4.997,3.699
				c0.405-0.004,0.744,0.26,0.805,0.652c0.057,0.373-0.18,0.729-0.567,0.848c-3.273,0.979-3.621,1.443-3.69,5.021
				C28.405,193.588,28.143,193.903,27.776,193.957z"/>
		</g>
	</g>
</g>
</svg>
