<?xml version="1.0" encoding="utf-8"?>
<!-- Generator: Adobe Illustrator 16.0.0, SVG Export Plug-In . SVG Version: 6.00 Build 0)  -->
<!DOCTYPE svg PUBLIC "-//W3C//DTD SVG 1.1//EN" "http://www.w3.org/Graphics/SVG/1.1/DTD/svg11.dtd">
<svg version="1.1" id="Layer_1" xmlns="http://www.w3.org/2000/svg" xmlns:xlink="http://www.w3.org/1999/xlink" x="0px" y="0px"
	 width="529.666px" height="111.992px" viewBox="0 0 529.666 111.992" enable-background="new 0 0 529.666 111.992"
	 xml:space="preserve">
<g>
	<g>
		<g>
			<radialGradient id="SVGID_1_" cx="157.5762" cy="-143.7959" r="463.1609" gradientUnits="userSpaceOnUse">
				<stop  offset="0" style="stop-color:#2077C0"/>
				<stop  offset="1" style="stop-color:#33FFCC"/>
			</radialGradient>
			<path fill="url(#SVGID_1_)" d="M142.161,18.004h7.598v7.598h-7.598V18.004z M142.161,25.602h7.598v7.6h-7.598V25.602z
				 M142.161,33.201h7.598v7.598h-7.598V33.201z M142.161,40.799h7.598v7.6h-7.598V40.799z M142.161,48.398h7.598v7.598h-7.598
				V48.398z M142.161,55.996h7.598v7.598h-7.598V55.996z M142.161,63.594h7.598v7.6h-7.598V63.594z M142.161,71.193h7.598v7.598
				h-7.598V71.193z M142.161,78.791h7.598v7.598h-7.598V78.791z M142.161,86.389h7.598v7.6h-7.598V86.389z M149.759,18.004h7.599
				v7.598h-7.599V18.004z M149.759,25.602h7.599v7.6h-7.599V25.602z M149.759,33.201h7.599v7.598h-7.599V33.201z M149.759,40.799
				h7.599v7.6h-7.599V40.799z M149.759,48.398h7.599v7.598h-7.599V48.398z M149.759,55.996h7.599v7.598h-7.599V55.996z
				 M149.759,63.594h7.599v7.6h-7.599V63.594z M149.759,71.193h7.599v7.598h-7.599V71.193z M149.759,78.791h7.599v7.598h-7.599
				V78.791z M149.759,86.389h7.599v7.6h-7.599V86.389z"/>
			<radialGradient id="SVGID_2_" cx="157.5771" cy="-143.7959" r="463.1599" gradientUnits="userSpaceOnUse">
				<stop  offset="0" style="stop-color:#2077C0"/>
				<stop  offset="1" style="stop-color:#33FFCC"/>
			</radialGradient>
			<path fill="url(#SVGID_2_)" d="M164.955,18.004h7.598v7.598h-7.598V18.004z M164.955,25.602h7.598v7.6h-7.598V25.602z
				 M164.955,33.201h7.598v7.598h-7.598V33.201z M164.955,40.799h7.598v7.6h-7.598V40.799z M164.955,48.398h7.598v7.598h-7.598
				V48.398z M164.955,55.996h7.598v7.598h-7.598V55.996z M164.955,63.594h7.598v7.6h-7.598V63.594z M164.955,71.193h7.598v7.598
				h-7.598V71.193z M164.955,78.791h7.598v7.598h-7.598V78.791z M164.955,86.389h7.598v7.6h-7.598V86.389z M172.553,18.004h7.599
				v7.598h-7.599V18.004z M172.553,25.602h7.599v7.6h-7.599V25.602z M172.553,33.201h7.599v7.598h-7.599V33.201z M172.553,40.799
				h7.599v7.6h-7.599V40.799z M172.553,48.398h7.599v7.598h-7.599V48.398z M172.553,55.996h7.599v7.598h-7.599V55.996z
				 M172.553,63.594h7.599v7.6h-7.599V63.594z M172.553,71.193h7.599v7.598h-7.599V71.193z M172.553,78.791h7.599v7.598h-7.599
				V78.791z M172.553,86.389h7.599v7.6h-7.599V86.389z M180.151,25.602h7.598v7.6h-7.598V25.602z M180.151,33.201h7.598v7.598
				h-7.598V33.201z M180.151,40.799h7.598v7.6h-7.598V40.799z M187.75,33.201h7.599v7.598h-7.599V33.201z M187.75,40.799h7.599v7.6
				h-7.599V40.799z M187.75,48.398h7.599v7.598h-7.599V48.398z M195.348,40.799h7.598v7.6h-7.598V40.799z M195.348,48.398h7.598
				v7.598h-7.598V48.398z M195.348,55.996h7.598v7.598h-7.598V55.996z M202.946,33.201h7.599v7.598h-7.599V33.201z M202.946,40.799
				h7.599v7.6h-7.599V40.799z M202.946,48.398h7.599v7.598h-7.599V48.398z M210.545,25.602h7.598v7.6h-7.598V25.602z
				 M210.545,33.201h7.598v7.598h-7.598V33.201z M210.545,40.799h7.598v7.6h-7.598V40.799z M218.143,18.004h7.599v7.598h-7.599
				V18.004z M218.143,25.602h7.599v7.6h-7.599V25.602z M218.143,33.201h7.599v7.598h-7.599V33.201z M218.143,40.799h7.599v7.6
				h-7.599V40.799z M218.143,48.398h7.599v7.598h-7.599V48.398z M218.143,55.996h7.599v7.598h-7.599V55.996z M218.143,63.594h7.599
				v7.6h-7.599V63.594z M218.143,71.193h7.599v7.598h-7.599V71.193z M218.143,78.791h7.599v7.598h-7.599V78.791z M218.143,86.389
				h7.599v7.6h-7.599V86.389z M225.742,18.004h7.598v7.598h-7.598V18.004z M225.742,25.602h7.598v7.6h-7.598V25.602z
				 M225.742,33.201h7.598v7.598h-7.598V33.201z M225.742,40.799h7.598v7.6h-7.598V40.799z M225.742,48.398h7.598v7.598h-7.598
				V48.398z M225.742,55.996h7.598v7.598h-7.598V55.996z M225.742,63.594h7.598v7.6h-7.598V63.594z M225.742,71.193h7.598v7.598
				h-7.598V71.193z M225.742,78.791h7.598v7.598h-7.598V78.791z M225.742,86.389h7.598v7.6h-7.598V86.389z"/>
			<radialGradient id="SVGID_3_" cx="157.5767" cy="-143.7959" r="463.1589" gradientUnits="userSpaceOnUse">
				<stop  offset="0" style="stop-color:#2077C0"/>
				<stop  offset="1" style="stop-color:#33FFCC"/>
			</radialGradient>
			<path fill="url(#SVGID_3_)" d="M240.937,40.799h7.598v7.6h-7.598V40.799z M240.937,48.398h7.598v7.598h-7.598V48.398z
				 M240.937,55.996h7.598v7.598h-7.598V55.996z M240.937,63.594h7.598v7.6h-7.598V63.594z M240.937,71.193h7.598v7.598h-7.598
				V71.193z M240.937,78.791h7.598v7.598h-7.598V78.791z M240.937,86.389h7.598v7.6h-7.598V86.389z M248.535,33.201h7.599v7.598
				h-7.599V33.201z M248.535,40.799h7.599v7.6h-7.599V40.799z M248.535,48.398h7.599v7.598h-7.599V48.398z M248.535,55.996h7.599
				v7.598h-7.599V55.996z M248.535,63.594h7.599v7.6h-7.599V63.594z M248.535,71.193h7.599v7.598h-7.599V71.193z M248.535,78.791
				h7.599v7.598h-7.599V78.791z M248.535,86.389h7.599v7.6h-7.599V86.389z M256.134,25.602h7.598v7.6h-7.598V25.602z
				 M256.134,33.201h7.598v7.598h-7.598V33.201z M256.134,40.799h7.598v7.6h-7.598V40.799z M256.134,63.594h7.598v7.6h-7.598V63.594
				z M256.134,71.193h7.598v7.598h-7.598V71.193z M263.732,18.004h7.599v7.598h-7.599V18.004z M263.732,25.602h7.599v7.6h-7.599
				V25.602z M263.732,33.201h7.599v7.598h-7.599V33.201z M263.732,63.594h7.599v7.6h-7.599V63.594z M263.732,71.193h7.599v7.598
				h-7.599V71.193z M271.331,25.602h7.598v7.6h-7.598V25.602z M271.331,33.201h7.598v7.598h-7.598V33.201z M271.331,40.799h7.598
				v7.6h-7.598V40.799z M271.331,63.594h7.598v7.6h-7.598V63.594z M271.331,71.193h7.598v7.598h-7.598V71.193z M278.929,33.201
				h7.599v7.598h-7.599V33.201z M278.929,40.799h7.599v7.6h-7.599V40.799z M278.929,48.398h7.599v7.598h-7.599V48.398z
				 M278.929,55.996h7.599v7.598h-7.599V55.996z M278.929,63.594h7.599v7.6h-7.599V63.594z M278.929,71.193h7.599v7.598h-7.599
				V71.193z M278.929,78.791h7.599v7.598h-7.599V78.791z M278.929,86.389h7.599v7.6h-7.599V86.389z M286.527,40.799h7.598v7.6
				h-7.598V40.799z M286.527,48.398h7.598v7.598h-7.598V48.398z M286.527,55.996h7.598v7.598h-7.598V55.996z M286.527,63.594h7.598
				v7.6h-7.598V63.594z M286.527,71.193h7.598v7.598h-7.598V71.193z M286.527,78.791h7.598v7.598h-7.598V78.791z M286.527,86.389
				h7.598v7.6h-7.598V86.389z"/>
			<radialGradient id="SVGID_4_" cx="157.5786" cy="-143.7959" r="463.1554" gradientUnits="userSpaceOnUse">
				<stop  offset="0" style="stop-color:#2077C0"/>
				<stop  offset="1" style="stop-color:#33FFCC"/>
			</radialGradient>
			<path fill="url(#SVGID_4_)" d="M301.722,25.602h7.599v7.6h-7.599V25.602z M301.722,33.201h7.599v7.598h-7.599V33.201z
				 M301.722,40.799h7.599v7.6h-7.599V40.799z M301.722,48.398h7.599v7.598h-7.599V48.398z M301.722,55.996h7.599v7.598h-7.599
				V55.996z M301.722,63.594h7.599v7.6h-7.599V63.594z M301.722,71.193h7.599v7.598h-7.599V71.193z M301.722,78.791h7.599v7.598
				h-7.599V78.791z M309.321,18.004h7.597v7.598h-7.597V18.004z M309.321,25.602h7.597v7.6h-7.597V25.602z M309.321,33.201h7.597
				v7.598h-7.597V33.201z M309.321,40.799h7.597v7.6h-7.597V40.799z M309.321,48.398h7.597v7.598h-7.597V48.398z M309.321,55.996
				h7.597v7.598h-7.597V55.996z M309.321,63.594h7.597v7.6h-7.597V63.594z M309.321,71.193h7.597v7.598h-7.597V71.193z
				 M309.321,78.791h7.597v7.598h-7.597V78.791z M309.321,86.389h7.597v7.6h-7.597V86.389z M316.918,18.004h7.6v7.598h-7.6V18.004z
				 M316.918,25.602h7.6v7.6h-7.6V25.602z M316.918,33.201h7.6v7.598h-7.6V33.201z M316.918,71.193h7.6v7.598h-7.6V71.193z
				 M316.918,78.791h7.6v7.598h-7.6V78.791z M316.918,86.389h7.6v7.6h-7.6V86.389z M324.518,18.004h7.598v7.598h-7.598V18.004z
				 M324.518,25.602h7.598v7.6h-7.598V25.602z M324.518,48.398h7.598v7.598h-7.598V48.398z M324.518,55.996h7.598v7.598h-7.598
				V55.996z M324.518,78.791h7.598v7.598h-7.598V78.791z M324.518,86.389h7.598v7.6h-7.598V86.389z M332.115,18.004h7.6v7.598h-7.6
				V18.004z M332.115,25.602h7.6v7.6h-7.6V25.602z M332.115,48.398h7.6v7.598h-7.6V48.398z M332.115,55.996h7.6v7.598h-7.6V55.996z
				 M332.115,78.791h7.6v7.598h-7.6V78.791z M332.115,86.389h7.6v7.6h-7.6V86.389z M339.715,18.004h7.598v7.598h-7.598V18.004z
				 M339.715,25.602h7.598v7.6h-7.598V25.602z M339.715,33.201h7.598v7.598h-7.598V33.201z M339.715,48.398h7.598v7.598h-7.598
				V48.398z M339.715,55.996h7.598v7.598h-7.598V55.996z M339.715,63.594h7.598v7.6h-7.598V63.594z M339.715,71.193h7.598v7.598
				h-7.598V71.193z M339.715,78.791h7.598v7.598h-7.598V78.791z M339.715,86.389h7.598v7.6h-7.598V86.389z M347.313,25.602h7.598
				v7.6h-7.598V25.602z M347.313,33.201h7.598v7.598h-7.598V33.201z M347.313,48.398h7.598v7.598h-7.598V48.398z M347.313,55.996
				h7.598v7.598h-7.598V55.996z M347.313,63.594h7.598v7.6h-7.598V63.594z M347.313,71.193h7.598v7.598h-7.598V71.193z
				 M347.313,78.791h7.598v7.598h-7.598V78.791z"/>
			<radialGradient id="SVGID_5_" cx="157.5908" cy="-143.7959" r="463.1431" gradientUnits="userSpaceOnUse">
				<stop  offset="0" style="stop-color:#2077C0"/>
				<stop  offset="1" style="stop-color:#33FFCC"/>
			</radialGradient>
			<path fill="url(#SVGID_5_)" d="M362.508,18.004h7.598v7.598h-7.598V18.004z M362.508,25.602h7.598v7.6h-7.598V25.602z
				 M362.508,33.201h7.598v7.598h-7.598V33.201z M362.508,40.799h7.598v7.6h-7.598V40.799z M362.508,48.398h7.598v7.598h-7.598
				V48.398z M362.508,55.996h7.598v7.598h-7.598V55.996z M362.508,63.594h7.598v7.6h-7.598V63.594z M362.508,71.193h7.598v7.598
				h-7.598V71.193z M362.508,78.791h7.598v7.598h-7.598V78.791z M362.508,86.389h7.598v7.6h-7.598V86.389z M370.105,18.004h7.598
				v7.598h-7.598V18.004z M370.105,25.602h7.598v7.6h-7.598V25.602z M370.105,33.201h7.598v7.598h-7.598V33.201z M370.105,40.799
				h7.598v7.6h-7.598V40.799z M370.105,48.398h7.598v7.598h-7.598V48.398z M370.105,55.996h7.598v7.598h-7.598V55.996z
				 M370.105,63.594h7.598v7.6h-7.598V63.594z M370.105,71.193h7.598v7.598h-7.598V71.193z M370.105,78.791h7.598v7.598h-7.598
				V78.791z M370.105,86.389h7.598v7.6h-7.598V86.389z"/>
			<radialGradient id="SVGID_6_" cx="157.5762" cy="-143.7959" r="463.1563" gradientUnits="userSpaceOnUse">
				<stop  offset="0" style="stop-color:#2077C0"/>
				<stop  offset="1" style="stop-color:#33FFCC"/>
			</radialGradient>
			<path fill="url(#SVGID_6_)" d="M385.301,18.004h7.6v7.598h-7.6V18.004z M385.301,25.602h7.6v7.6h-7.6V25.602z M385.301,33.201
				h7.6v7.598h-7.6V33.201z M385.301,40.799h7.6v7.6h-7.6V40.799z M385.301,48.398h7.6v7.598h-7.6V48.398z M385.301,55.996h7.6
				v7.598h-7.6V55.996z M385.301,63.594h7.6v7.6h-7.6V63.594z M385.301,71.193h7.6v7.598h-7.6V71.193z M385.301,78.791h7.6v7.598
				h-7.6V78.791z M385.301,86.389h7.6v7.6h-7.6V86.389z M392.9,18.004h7.598v7.598H392.9V18.004z M392.9,25.602h7.598v7.6H392.9
				V25.602z M392.9,33.201h7.598v7.598H392.9V33.201z M392.9,40.799h7.598v7.6H392.9V40.799z M392.9,48.398h7.598v7.598H392.9
				V48.398z M392.9,55.996h7.598v7.598H392.9V55.996z M392.9,63.594h7.598v7.6H392.9V63.594z M392.9,71.193h7.598v7.598H392.9
				V71.193z M392.9,78.791h7.598v7.598H392.9V78.791z M392.9,86.389h7.598v7.6H392.9V86.389z M400.498,18.004h7.598v7.598h-7.598
				V18.004z M400.498,25.602h7.598v7.6h-7.598V25.602z M400.498,33.201h7.598v7.598h-7.598V33.201z M400.498,40.799h7.598v7.6
				h-7.598V40.799z M400.498,48.398h7.598v7.598h-7.598V48.398z M408.096,33.201h7.6v7.598h-7.6V33.201z M408.096,40.799h7.6v7.6
				h-7.6V40.799z M408.096,48.398h7.6v7.598h-7.6V48.398z M408.096,55.996h7.6v7.598h-7.6V55.996z M408.096,63.594h7.6v7.6h-7.6
				V63.594z M415.695,48.398h7.598v7.598h-7.598V48.398z M415.695,55.996h7.598v7.598h-7.598V55.996z M415.695,63.594h7.598v7.6
				h-7.598V63.594z M415.695,71.193h7.598v7.598h-7.598V71.193z M415.695,78.791h7.598v7.598h-7.598V78.791z M423.293,63.594h7.598
				v7.6h-7.598V63.594z M423.293,71.193h7.598v7.598h-7.598V71.193z M423.293,78.791h7.598v7.598h-7.598V78.791z M423.293,86.389
				h7.598v7.6h-7.598V86.389z M430.891,18.004h7.6v7.598h-7.6V18.004z M430.891,25.602h7.6v7.6h-7.6V25.602z M430.891,33.201h7.6
				v7.598h-7.6V33.201z M430.891,40.799h7.6v7.6h-7.6V40.799z M430.891,48.398h7.6v7.598h-7.6V48.398z M430.891,55.996h7.6v7.598
				h-7.6V55.996z M430.891,63.594h7.6v7.6h-7.6V63.594z M430.891,71.193h7.6v7.598h-7.6V71.193z M430.891,78.791h7.6v7.598h-7.6
				V78.791z M430.891,86.389h7.6v7.6h-7.6V86.389z M438.49,18.004h7.598v7.598h-7.598V18.004z M438.49,25.602h7.598v7.6h-7.598
				V25.602z M438.49,33.201h7.598v7.598h-7.598V33.201z M438.49,40.799h7.598v7.6h-7.598V40.799z M438.49,48.398h7.598v7.598h-7.598
				V48.398z M438.49,55.996h7.598v7.598h-7.598V55.996z M438.49,63.594h7.598v7.6h-7.598V63.594z M438.49,71.193h7.598v7.598h-7.598
				V71.193z M438.49,78.791h7.598v7.598h-7.598V78.791z M438.49,86.389h7.598v7.6h-7.598V86.389z"/>
			<radialGradient id="SVGID_7_" cx="157.583" cy="-143.7959" r="463.1494" gradientUnits="userSpaceOnUse">
				<stop  offset="0" style="stop-color:#2077C0"/>
				<stop  offset="1" style="stop-color:#33FFCC"/>
			</radialGradient>
			<path fill="url(#SVGID_7_)" d="M453.686,40.799h7.598v7.6h-7.598V40.799z M453.686,48.398h7.598v7.598h-7.598V48.398z
				 M453.686,55.996h7.598v7.598h-7.598V55.996z M453.686,63.594h7.598v7.6h-7.598V63.594z M453.686,71.193h7.598v7.598h-7.598
				V71.193z M453.686,78.791h7.598v7.598h-7.598V78.791z M453.686,86.389h7.598v7.6h-7.598V86.389z M461.283,33.201h7.598v7.598
				h-7.598V33.201z M461.283,40.799h7.598v7.6h-7.598V40.799z M461.283,48.398h7.598v7.598h-7.598V48.398z M461.283,55.996h7.598
				v7.598h-7.598V55.996z M461.283,63.594h7.598v7.6h-7.598V63.594z M461.283,71.193h7.598v7.598h-7.598V71.193z M461.283,78.791
				h7.598v7.598h-7.598V78.791z M461.283,86.389h7.598v7.6h-7.598V86.389z M468.881,25.602h7.6v7.6h-7.6V25.602z M468.881,33.201
				h7.6v7.598h-7.6V33.201z M468.881,40.799h7.6v7.6h-7.6V40.799z M468.881,63.594h7.6v7.6h-7.6V63.594z M468.881,71.193h7.6v7.598
				h-7.6V71.193z M476.48,18.004h7.598v7.598h-7.598V18.004z M476.48,25.602h7.598v7.6h-7.598V25.602z M476.48,33.201h7.598v7.598
				h-7.598V33.201z M476.48,63.594h7.598v7.6h-7.598V63.594z M476.48,71.193h7.598v7.598h-7.598V71.193z M484.078,25.602h7.6v7.6
				h-7.6V25.602z M484.078,33.201h7.6v7.598h-7.6V33.201z M484.078,40.799h7.6v7.6h-7.6V40.799z M484.078,63.594h7.6v7.6h-7.6
				V63.594z M484.078,71.193h7.6v7.598h-7.6V71.193z M491.678,33.201h7.598v7.598h-7.598V33.201z M491.678,40.799h7.598v7.6h-7.598
				V40.799z M491.678,48.398h7.598v7.598h-7.598V48.398z M491.678,55.996h7.598v7.598h-7.598V55.996z M491.678,63.594h7.598v7.6
				h-7.598V63.594z M491.678,71.193h7.598v7.598h-7.598V71.193z M491.678,78.791h7.598v7.598h-7.598V78.791z M491.678,86.389h7.598
				v7.6h-7.598V86.389z M499.275,40.799h7.598v7.6h-7.598V40.799z M499.275,48.398h7.598v7.598h-7.598V48.398z M499.275,55.996
				h7.598v7.598h-7.598V55.996z M499.275,63.594h7.598v7.6h-7.598V63.594z M499.275,71.193h7.598v7.598h-7.598V71.193z
				 M499.275,78.791h7.598v7.598h-7.598V78.791z M499.275,86.389h7.598v7.6h-7.598V86.389z"/>
			<radialGradient id="SVGID_8_" cx="157.6006" cy="-143.7959" r="463.1338" gradientUnits="userSpaceOnUse">
				<stop  offset="0" style="stop-color:#2077C0"/>
				<stop  offset="1" style="stop-color:#33FFCC"/>
			</radialGradient>
			<path fill="url(#SVGID_8_)" d="M514.471,18.004h7.598v7.598h-7.598V18.004z M514.471,25.602h7.598v7.6h-7.598V25.602z
				 M514.471,33.201h7.598v7.598h-7.598V33.201z M514.471,40.799h7.598v7.6h-7.598V40.799z M514.471,48.398h7.598v7.598h-7.598
				V48.398z M514.471,55.996h7.598v7.598h-7.598V55.996z M514.471,63.594h7.598v7.6h-7.598V63.594z M514.471,71.193h7.598v7.598
				h-7.598V71.193z M514.471,78.791h7.598v7.598h-7.598V78.791z M514.471,86.389h7.598v7.6h-7.598V86.389z M522.068,18.004h7.598
				v7.598h-7.598V18.004z M522.068,25.602h7.598v7.6h-7.598V25.602z M522.068,33.201h7.598v7.598h-7.598V33.201z M522.068,40.799
				h7.598v7.6h-7.598V40.799z M522.068,48.398h7.598v7.598h-7.598V48.398z M522.068,55.996h7.598v7.598h-7.598V55.996z
				 M522.068,63.594h7.598v7.6h-7.598V63.594z M522.068,71.193h7.598v7.598h-7.598V71.193z M522.068,78.791h7.598v7.598h-7.598
				V78.791z M522.068,86.389h7.598v7.6h-7.598V86.389z"/>
		</g>
	</g>
	<g>
		
			<linearGradient id="SVGID_9_" gradientUnits="userSpaceOnUse" x1="11.3574" y1="-399.9258" x2="123.3486" y2="-399.9258" gradientTransform="matrix(1 0 0 -1 -8.3599 -343.9297)">
			<stop  offset="0" style="stop-color:#2077C0"/>
			<stop  offset="1" style="stop-color:#33FFCC"/>
		</linearGradient>
		<path fill="url(#SVGID_9_)" d="M74.632,18.639c-0.984,0.373-1.64,1.313-1.64,2.359c0,1.053,0.656,1.996,1.64,2.365l12.358,4.635
			l4.635,12.359c0.374,0.982,1.312,1.639,2.365,1.639s1.992-0.656,2.365-1.639l4.634-12.359l12.358-4.635
			c0.984-0.369,1.641-1.313,1.641-2.365c0-1.047-0.656-1.986-1.641-2.359L100.99,14L96.355,1.641C95.982,0.656,95.043,0,93.99,0
			s-1.991,0.656-2.365,1.641L86.991,14L74.632,18.639z M47.86,16.035C47.291,14.793,46.044,14,44.689,14
			c-1.358,0-2.604,0.793-3.172,2.035L29.968,40.973L5.032,52.496c-1.247,0.574-2.035,1.818-2.035,3.199
			c0,1.377,0.788,2.598,2.035,3.172l24.956,11.523l11.506,24.936c0.569,1.244,1.816,2.037,3.171,2.037s2.602-0.793,3.172-2.037
			l11.526-24.957L84.325,58.84c1.244-0.566,2.032-1.814,2.032-3.172c0-1.354-0.788-2.598-2.032-3.172L59.387,40.994L47.86,16.035z
			 M86.991,83.994l-12.358,4.639c-0.984,0.373-1.64,1.313-1.64,2.361c0,1.053,0.656,1.994,1.64,2.363l12.358,4.635l4.635,12.359
			c0.374,0.984,1.312,1.641,2.365,1.641s1.992-0.656,2.365-1.641l4.634-12.359l12.358-4.635c0.984-0.369,1.641-1.311,1.641-2.363
			c0-1.049-0.656-1.988-1.641-2.361l-12.358-4.639l-4.634-12.359c-0.374-0.984-1.313-1.641-2.365-1.641s-1.991,0.656-2.365,1.641
			L86.991,83.994z"/>
		<g>
			<linearGradient id="SVGID_10_" gradientUnits="userSpaceOnUse" x1="0" y1="73.3223" x2="122.2769" y2="73.3223">
				<stop  offset="0" style="stop-color:#2077C0"/>
				<stop  offset="1" style="stop-color:#33FFCC"/>
			</linearGradient>
			<path fill="none" stroke="url(#SVGID_10_)" stroke-miterlimit="10" d="M64.714,83.619C31.285,95.23,2.583,100.035,0.607,94.348
				C-1.368,88.656,24.13,74.635,57.56,63.023c33.432-11.611,62.136-16.414,64.109-10.723C123.643,57.988,98.142,72.01,64.714,83.619
				z"/>
			<g>
				<linearGradient id="SVGID_11_" gradientUnits="userSpaceOnUse" x1="0" y1="73.3223" x2="122.2769" y2="73.3223">
					<stop  offset="0" style="stop-color:#2077C0"/>
					<stop  offset="1" style="stop-color:#33FFCC"/>
				</linearGradient>
				<path fill="none" stroke="url(#SVGID_11_)" stroke-miterlimit="10" d="M64.714,83.619C31.285,95.23,2.583,100.035,0.607,94.348
					C-1.368,88.656,24.13,74.635,57.56,63.023c33.432-11.611,62.136-16.414,64.109-10.723
					C123.643,57.988,98.142,72.01,64.714,83.619z"/>
			</g>
		</g>
		<g>
			
				<linearGradient id="SVGID_12_" gradientUnits="userSpaceOnUse" x1="30.0225" y1="-359.9756" x2="33.8115" y2="-359.9756" gradientTransform="matrix(1 0 0 -1 -8.3599 -343.9297)">
				<stop  offset="0" style="stop-color:#2077C0"/>
				<stop  offset="1" style="stop-color:#33FFCC"/>
			</linearGradient>
			<path fill="url(#SVGID_12_)" d="M23.556,14.15c1.048,0,1.896,0.852,1.896,1.895s-0.848,1.896-1.896,1.896
				c-1.046,0-1.894-0.854-1.894-1.896S22.51,14.15,23.556,14.15z"/>
		</g>
		<g>
			
				<linearGradient id="SVGID_13_" gradientUnits="userSpaceOnUse" x1="10.5073" y1="-415.4736" x2="14.2964" y2="-415.4736" gradientTransform="matrix(1 0 0 -1 -8.3599 -343.9297)">
				<stop  offset="0" style="stop-color:#2077C0"/>
				<stop  offset="1" style="stop-color:#33FFCC"/>
			</linearGradient>
			<path fill="url(#SVGID_13_)" d="M4.041,69.648c1.048,0,1.896,0.848,1.896,1.896c0,1.043-0.848,1.895-1.896,1.895
				c-1.046,0-1.894-0.852-1.894-1.895C2.147,70.496,2.995,69.648,4.041,69.648z"/>
		</g>
		<g>
			
				<linearGradient id="SVGID_14_" gradientUnits="userSpaceOnUse" x1="88.0371" y1="-345.8252" x2="91.8262" y2="-345.8252" gradientTransform="matrix(1 0 0 -1 -8.3599 -343.9297)">
				<stop  offset="0" style="stop-color:#2077C0"/>
				<stop  offset="1" style="stop-color:#33FFCC"/>
			</linearGradient>
			<path fill="url(#SVGID_14_)" d="M81.571,0c1.048,0,1.896,0.848,1.896,1.896c0,1.043-0.848,1.895-1.896,1.895
				c-1.046,0-1.894-0.852-1.894-1.895C79.677,0.848,80.525,0,81.571,0z"/>
		</g>
		<g>
			
				<linearGradient id="SVGID_15_" gradientUnits="userSpaceOnUse" x1="122.688" y1="-430.7061" x2="126.479" y2="-430.7061" gradientTransform="matrix(1 0 0 -1 -8.3599 -343.9297)">
				<stop  offset="0" style="stop-color:#2077C0"/>
				<stop  offset="1" style="stop-color:#33FFCC"/>
			</linearGradient>
			<circle fill="url(#SVGID_15_)" cx="116.224" cy="86.776" r="1.894"/>
		</g>
		<g>
			
				<linearGradient id="SVGID_16_" gradientUnits="userSpaceOnUse" x1="35.1216" y1="-399.7891" x2="36.582" y2="-399.7891" gradientTransform="matrix(1 0 0 -1 -8.3599 -343.9297)">
				<stop  offset="0" style="stop-color:#2077C0"/>
				<stop  offset="1" style="stop-color:#33FFCC"/>
			</linearGradient>
			<path fill="url(#SVGID_16_)" d="M27.491,55.131c0.403,0,0.731,0.322,0.731,0.729c0,0.4-0.328,0.729-0.731,0.729
				c-0.403,0-0.729-0.328-0.729-0.729C26.762,55.453,27.088,55.131,27.491,55.131z"/>
		</g>
		<g>
			
				<linearGradient id="SVGID_17_" gradientUnits="userSpaceOnUse" x1="13.9673" y1="-373.4263" x2="25.54" y2="-373.4263" gradientTransform="matrix(1 0 0 -1 -8.3599 -343.9297)">
				<stop  offset="0" style="stop-color:#2077C0"/>
				<stop  offset="1" style="stop-color:#33FFCC"/>
			</linearGradient>
			<path fill="url(#SVGID_17_)" d="M12.264,35.271c-0.375,0.061-0.727-0.172-0.838-0.555c-1.043-3.414-1.595-3.828-5.013-3.705
				c-0.394,0.014-0.74-0.27-0.797-0.643c-0.057-0.383,0.189-0.738,0.567-0.857c3.268-0.965,3.621-1.439,3.7-5.016
				c0.012-0.396,0.267-0.721,0.638-0.775c0.383-0.059,0.729,0.174,0.85,0.557c1.035,3.412,1.583,3.822,4.997,3.699
				c0.406-0.004,0.745,0.26,0.805,0.652c0.057,0.373-0.18,0.729-0.567,0.848c-3.274,0.979-3.621,1.443-3.691,5.021
				C12.893,34.902,12.631,35.217,12.264,35.271z"/>
		</g>
	</g>
</g>
</svg>
