<?xml version="1.0" encoding="UTF-8"?>
<!DOCTYPE svg PUBLIC "-//W3C//DTD SVG 1.1//EN" "http://www.w3.org/Graphics/SVG/1.1/DTD/svg11.dtd">
<svg xmlns="http://www.w3.org/2000/svg" version="1.1" width="1103px" height="233px" style="shape-rendering:geometricPrecision; text-rendering:geometricPrecision; image-rendering:optimizeQuality; fill-rule:evenodd; clip-rule:evenodd" xmlns:xlink="http://www.w3.org/1999/xlink">
<g><path style="opacity:0.576" fill="#76c9b3" d="M 79.5,30.5 C 80.1174,30.6107 80.6174,30.944 81,31.5C 81.171,36.5329 81.671,41.5329 82.5,46.5C 84.7534,45.7469 86.5867,44.4136 88,42.5C 87.4535,45.0933 85.9535,47.2599 83.5,49C 106.16,50.3322 106.16,51.6655 83.5,53C 85.9535,54.7401 87.4535,56.9067 88,59.5C 86.3333,57.8333 84.6667,56.1667 83,54.5C 82.6667,54.8333 82.3333,55.1667 82,55.5C 81.8989,60.9459 81.2323,66.2793 80,71.5C 79.9059,65.7222 79.2392,60.0555 78,54.5C 71.8466,59.8441 71.3466,59.5108 76.5,53.5C 71.2227,52.3402 65.8893,51.5068 60.5,51C 66.1298,50.0336 71.7964,49.3669 77.5,49C 75.0465,47.2599 73.5465,45.0933 73,42.5C 74.3513,44.019 75.8513,45.3523 77.5,46.5C 77.8333,46.1667 78.1667,45.8333 78.5,45.5C 79.4476,40.5649 79.781,35.5649 79.5,30.5 Z"/></g>
<g><path style="opacity:0.792" fill="#1a78be" d="M 419.5,31.5 C 427.597,31.5243 435.264,33.3576 442.5,37C 447.023,42.5205 451.856,47.6871 457,52.5C 459.911,58.1445 461.578,64.1445 462,70.5C 462.5,79.8274 462.666,89.1607 462.5,98.5C 455.167,98.5 447.833,98.5 440.5,98.5C 440.5,95.5 440.5,92.5 440.5,89.5C 437.482,89.6646 434.482,89.498 431.5,89C 432.823,79.5299 432.823,70.0299 431.5,60.5C 424.151,58.4227 419.651,61.0893 418,68.5C 417.333,102.5 417.333,136.5 418,170.5C 426.105,172.616 431.105,169.616 433,161.5C 433.499,156.177 433.666,150.844 433.5,145.5C 432.5,145.5 431.5,145.5 430.5,145.5C 430.5,142.5 430.5,139.5 430.5,136.5C 427.5,136.5 424.5,136.5 421.5,136.5C 421.5,130.167 421.5,123.833 421.5,117.5C 432.5,117.5 443.5,117.5 454.5,117.5C 454.5,120.5 454.5,123.5 454.5,126.5C 457.448,126.223 460.281,126.556 463,127.5C 463.864,144.57 463.198,161.57 461,178.5C 458.038,190.79 450.205,197.29 437.5,198C 427.1,199.469 417.1,198.135 407.5,194C 403.553,188.93 399.053,184.43 394,180.5C 390.468,175.05 388.468,169.05 388,162.5C 387.039,126.133 387.373,89.7999 389,53.5C 390.544,43.6244 396.044,37.1244 405.5,34C 410.294,33.0979 414.961,32.2645 419.5,31.5 Z"/></g>
<g><path style="opacity:0.787" fill="#1a78be" d="M 538.5,31.5 C 546.082,31.7803 553.416,33.2803 560.5,36C 565.544,41.2208 570.711,46.3874 576,51.5C 578.881,56.81 580.548,62.4766 581,68.5C 581.5,78.4944 581.666,88.4944 581.5,98.5C 574.167,98.5 566.833,98.5 559.5,98.5C 559.5,95.5 559.5,92.5 559.5,89.5C 556.833,89.5 554.167,89.5 551.5,89.5C 551.666,79.8276 551.5,70.1609 551,60.5C 543.419,58.0823 538.753,60.7489 537,68.5C 536.171,102.738 536.338,136.905 537.5,171C 543.445,172.468 547.945,170.635 551,165.5C 552.074,153.704 552.24,142.037 551.5,130.5C 558.833,130.5 566.167,130.5 573.5,130.5C 573.5,133.5 573.5,136.5 573.5,139.5C 576.5,139.5 579.5,139.5 582.5,139.5C 582.984,153.264 582.151,166.931 580,180.5C 577.7,187.61 573.2,192.777 566.5,196C 554.5,199.333 542.5,199.333 530.5,196C 528.004,194.92 525.67,193.586 523.5,192C 518.698,186.822 514.198,181.322 510,175.5C 508.263,171.339 507.263,167.005 507,162.5C 506.039,126.133 506.373,89.7999 508,53.5C 512.585,38.4555 522.751,31.1221 538.5,31.5 Z"/></g>
<g><path style="opacity:0.799" fill="#1a78be" d="M 661.5,31.5 C 668.748,31.8252 675.748,33.3252 682.5,36C 687.544,41.2208 692.711,46.3874 698,51.5C 700.911,57.1445 702.578,63.1445 703,69.5C 703.5,79.1609 703.666,88.8276 703.5,98.5C 696.5,98.5 689.5,98.5 682.5,98.5C 682.5,95.5 682.5,92.5 682.5,89.5C 679.5,89.5 676.5,89.5 673.5,89.5C 673.5,79.5 673.5,69.5 673.5,59.5C 667.79,58.2746 663.29,59.9413 660,64.5C 657.837,76.2313 658.003,87.8979 660.5,99.5C 668.422,101.23 676.089,103.73 683.5,107C 687.903,111.682 692.403,116.182 697,120.5C 702.597,130.548 705.097,141.382 704.5,153C 704.024,160.168 703.524,167.335 703,174.5C 701.167,188.333 693.333,196.167 679.5,198C 668.259,199.715 657.592,198.049 647.5,193C 644.041,187.873 639.874,183.373 635,179.5C 633.392,176.618 632.059,173.618 631,170.5C 628.651,157.23 628.151,143.897 629.5,130.5C 636.5,130.5 643.5,130.5 650.5,130.5C 650.492,133.545 650.159,136.545 649.5,139.5C 652.5,139.5 655.5,139.5 658.5,139.5C 658.5,150.167 658.5,160.833 658.5,171.5C 665.204,172.73 670.038,170.397 673,164.5C 674.78,153.843 674.78,143.177 673,132.5C 664.802,129.728 656.635,126.561 648.5,123C 644.114,118.403 639.614,113.903 635,109.5C 629.383,99.0808 627.217,87.9142 628.5,76C 627.454,64.3135 629.288,53.1468 634,42.5C 636.592,39.2379 639.759,36.7379 643.5,35C 649.529,33.2687 655.529,32.102 661.5,31.5 Z"/></g>
<g><path style="opacity:0.795" fill="#1a78be" d="M 1024.5,31.5 C 1033.48,31.3268 1041.81,33.4935 1049.5,38C 1053.02,43.1797 1057.18,47.6797 1062,51.5C 1064.87,56.1022 1066.53,61.1022 1067,66.5C 1069.21,103.871 1068.87,141.205 1066,178.5C 1063.04,190.79 1055.2,197.29 1042.5,198C 1032.1,199.469 1022.1,198.135 1012.5,194C 1008.01,188.876 1003.18,184.043 998,179.5C 995.34,175.186 993.673,170.519 993,165.5C 990.784,127.457 991.117,89.4568 994,51.5C 995.629,42.5377 1000.8,36.7044 1009.5,34C 1014.62,33.0747 1019.62,32.2414 1024.5,31.5 Z M 1028.5,59.5 C 1031.5,59.5 1034.5,59.5 1037.5,59.5C 1037.67,94.1683 1037.5,128.835 1037,163.5C 1034.43,169.988 1029.59,172.655 1022.5,171.5C 1021.02,136.493 1021.19,101.493 1023,66.5C 1023.94,63.4025 1025.77,61.0691 1028.5,59.5 Z"/></g>
<g><path style="opacity:0.921" fill="#1a78be" d="M 115.5,32.5 C 116.675,32.281 117.675,32.6143 118.5,33.5C 120.412,44.4315 125.079,53.9315 132.5,62C 136.743,63.5419 140.743,65.3753 144.5,67.5C 144.291,68.086 143.957,68.586 143.5,69C 132.811,69.2438 125.978,74.4105 123,84.5C 122.184,89.5462 121.184,94.5462 120,99.5C 118.333,102.167 116.667,102.167 115,99.5C 114.73,89.8826 111.23,81.7159 104.5,75C 100.289,73.2905 95.9557,71.9572 91.5,71C 89.4078,70.0475 89.0745,68.7141 90.5,67C 97.5026,66.4505 103.336,63.6171 108,58.5C 111.244,50.0061 113.744,41.3394 115.5,32.5 Z"/></g>
<g><path style="opacity:0.8" fill="#1a78be" d="M 183.5,33.5 C 195.833,33.5 208.167,33.5 220.5,33.5C 220.508,36.5448 220.841,39.5448 221.5,42.5C 223.833,42.5 226.167,42.5 228.5,42.5C 234.295,71.6042 238.462,100.938 241,130.5C 241.71,116.81 242.71,103.143 244,89.5C 247.492,70.8769 250.658,52.2103 253.5,33.5C 265.833,33.5 278.167,33.5 290.5,33.5C 290.5,36.5 290.5,39.5 290.5,42.5C 293.167,42.5 295.833,42.5 298.5,42.5C 298.5,93.8333 298.5,145.167 298.5,196.5C 291.167,196.5 283.833,196.5 276.5,196.5C 276.5,193.5 276.5,190.5 276.5,187.5C 273.833,187.5 271.167,187.5 268.5,187.5C 268.667,174.163 268.5,160.829 268,147.5C 265.152,163.908 261.985,180.241 258.5,196.5C 249.827,196.666 241.16,196.5 232.5,196C 231.518,193.262 230.852,190.428 230.5,187.5C 228.167,187.5 225.833,187.5 223.5,187.5C 220.013,169.898 216.846,152.231 214,134.5C 213.5,155.164 213.333,175.831 213.5,196.5C 206.5,196.5 199.5,196.5 192.5,196.5C 192.5,193.5 192.5,190.5 192.5,187.5C 189.5,187.5 186.5,187.5 183.5,187.5C 183.5,136.167 183.5,84.8333 183.5,33.5 Z"/></g>
<g><path style="opacity:0.798" fill="#1a78be" d="M 320.5,33.5 C 332.5,33.5 344.5,33.5 356.5,33.5C 356.963,36.4824 357.296,39.4824 357.5,42.5C 360.167,42.5 362.833,42.5 365.5,42.5C 371.335,93.8507 377.335,145.184 383.5,196.5C 376.167,196.5 368.833,196.5 361.5,196.5C 361.726,193.751 361.393,191.084 360.5,188.5C 357.701,187.996 355.201,186.996 353,185.5C 352.076,176.502 351.243,167.502 350.5,158.5C 345.833,158.5 341.167,158.5 336.5,158.5C 335.236,171.145 334.236,183.812 333.5,196.5C 325.833,196.5 318.167,196.5 310.5,196.5C 311.159,193.545 311.492,190.545 311.5,187.5C 308.5,187.5 305.5,187.5 302.5,187.5C 308.573,136.174 314.573,84.8411 320.5,33.5 Z M 342.5,89.5 C 344.698,102.959 346.364,116.626 347.5,130.5C 344.833,130.5 342.167,130.5 339.5,130.5C 341.042,116.875 342.042,103.208 342.5,89.5 Z"/></g>
<g><path style="opacity:0.798" fill="#1a78be" d="M 467.5,33.5 C 474.833,33.5 482.167,33.5 489.5,33.5C 489.5,36.5 489.5,39.5 489.5,42.5C 492.167,42.5 494.833,42.5 497.5,42.5C 497.5,93.8333 497.5,145.167 497.5,196.5C 490.5,196.5 483.5,196.5 476.5,196.5C 476.5,193.5 476.5,190.5 476.5,187.5C 473.5,187.5 470.5,187.5 467.5,187.5C 467.5,136.167 467.5,84.8333 467.5,33.5 Z"/></g>
<g><path style="opacity:0.794" fill="#1a78be" d="M 707.5,33.5 C 729.5,33.5 751.5,33.5 773.5,33.5C 773.5,36.5 773.5,39.5 773.5,42.5C 776.5,42.5 779.5,42.5 782.5,42.5C 782.5,48.8333 782.5,55.1667 782.5,61.5C 775.167,61.5 767.833,61.5 760.5,61.5C 760.5,106.5 760.5,151.5 760.5,196.5C 753.167,196.5 745.833,196.5 738.5,196.5C 738.5,193.5 738.5,190.5 738.5,187.5C 735.833,187.5 733.167,187.5 730.5,187.5C 730.5,145.5 730.5,103.5 730.5,61.5C 725.833,61.5 721.167,61.5 716.5,61.5C 716.5,58.5 716.5,55.5 716.5,52.5C 713.5,52.5 710.5,52.5 707.5,52.5C 707.5,46.1667 707.5,39.8333 707.5,33.5 Z"/></g>
<g><path style="opacity:0.795" fill="#1a78be" d="M 786.5,33.5 C 793.833,33.5 801.167,33.5 808.5,33.5C 808.5,36.5 808.5,39.5 808.5,42.5C 811.167,42.5 813.833,42.5 816.5,42.5C 816.5,85.5 816.5,128.5 816.5,171.5C 823.593,172.655 828.427,169.988 831,163.5C 831.5,120.168 831.667,76.8346 831.5,33.5C 838.5,33.5 845.5,33.5 852.5,33.5C 852.5,36.5 852.5,39.5 852.5,42.5C 855.5,42.5 858.5,42.5 861.5,42.5C 861.667,85.8346 861.5,129.168 861,172.5C 859.961,187.872 851.795,196.372 836.5,198C 824.699,199.972 813.699,197.972 803.5,192C 800.041,186.873 795.874,182.373 791,178.5C 789.803,175.911 788.803,173.244 788,170.5C 786.525,124.872 786.025,79.2056 786.5,33.5 Z"/></g>
<g><path style="opacity:0.804" fill="#1a78be" d="M 870.5,33.5 C 883.837,33.3334 897.171,33.5001 910.5,34C 915.898,34.4659 920.898,36.1326 925.5,39C 929,43.8333 933.167,48 938,51.5C 941.177,56.3614 943.177,61.6948 944,67.5C 946,102.167 946,136.833 944,171.5C 942.829,185.001 935.662,193.167 922.5,196C 907.837,196.5 893.17,196.667 878.5,196.5C 878.5,193.5 878.5,190.5 878.5,187.5C 875.833,187.5 873.167,187.5 870.5,187.5C 870.5,136.167 870.5,84.8333 870.5,33.5 Z M 900.5,61.5 C 904.902,61.2281 909.235,61.5614 913.5,62.5C 914.667,95.1616 914.833,127.828 914,160.5C 911.747,166.768 907.247,169.434 900.5,168.5C 900.5,132.833 900.5,97.1667 900.5,61.5 Z"/></g>
<g><path style="opacity:0.796" fill="#1a78be" d="M 953.5,33.5 C 960.833,33.5 968.167,33.5 975.5,33.5C 975.5,36.5 975.5,39.5 975.5,42.5C 978.167,42.5 980.833,42.5 983.5,42.5C 983.5,93.8333 983.5,145.167 983.5,196.5C 976.167,196.5 968.833,196.5 961.5,196.5C 961.5,193.5 961.5,190.5 961.5,187.5C 958.833,187.5 956.167,187.5 953.5,187.5C 953.5,136.167 953.5,84.8333 953.5,33.5 Z"/></g>
<g><path style="opacity:0.949" fill="#1a78be" d="M 54.5,60.5 C 56.1439,60.2865 57.6439,60.6198 59,61.5C 61.512,69.8806 64.1786,78.2139 67,86.5C 70.448,95.5867 75.948,103.087 83.5,109C 89.4398,111.808 95.4398,114.308 101.5,116.5C 101.023,117.478 100.357,118.311 99.5,119C 93.0997,120.413 86.7664,122.08 80.5,124C 73.1667,128.488 68.6667,134.988 67,143.5C 65.6102,151.565 63.9435,159.565 62,167.5C 59.2029,172.589 56.5363,172.589 54,167.5C 52.7048,156.649 49.7048,146.316 45,136.5C 42.1312,133.296 38.9646,130.463 35.5,128C 28.85,126.002 22.1834,124.002 15.5,122C 11.675,119.768 11.675,117.768 15.5,116C 32.3419,115.675 43.1753,107.508 48,91.5C 49.939,81.0728 52.1057,70.7395 54.5,60.5 Z"/></g>
<g><path style="opacity:0.915" fill="#1a78be" d="M 120.5,130.5 C 122.911,130.137 124.411,131.137 125,133.5C 124.969,149.464 132.802,158.631 148.5,161C 150.394,162.079 150.727,163.413 149.5,165C 137.973,164.864 130.806,170.364 128,181.5C 127.092,186.853 126.092,192.187 125,197.5C 124.047,199.592 122.714,199.925 121,198.5C 119.033,186.89 113.866,177.057 105.5,169C 90.7617,165.025 91.095,162.025 106.5,160C 111.423,157.673 114.59,153.84 116,148.5C 116.758,142.261 118.258,136.261 120.5,130.5 Z"/></g>
<g><path style="opacity:0.551" fill="#76c9b3" d="M 87.5,173.5 C 87.1412,175.371 86.1412,176.871 84.5,178C 84.8333,178.333 85.1667,178.667 85.5,179C 90.5329,179.171 95.5329,179.671 100.5,180.5C 95.1206,181.156 89.7873,181.989 84.5,183C 89.9115,189.378 89.4115,189.878 83,184.5C 82.6667,184.833 82.3333,185.167 82,185.5C 81.9455,190.679 81.2789,195.679 80,200.5C 79.8989,195.054 79.2323,189.721 78,184.5C 71.5885,189.878 71.0885,189.378 76.5,183C 71.2127,181.989 65.8794,181.156 60.5,180.5C 65.4671,179.671 70.4671,179.171 75.5,179C 75.8333,178.667 76.1667,178.333 76.5,178C 71.1223,171.589 71.6223,171.089 78,176.5C 79.2323,171.279 79.8989,165.946 80,160.5C 81.1213,165.689 81.9546,171.022 82.5,176.5C 84.0287,175.237 85.6954,174.237 87.5,173.5 Z"/></g>
<g><path style="opacity:0.133" fill="#76c9b3" d="M 87.5,172.5 C 88.8333,173.167 88.8333,173.167 87.5,172.5 Z"/></g>
</svg>
